PathFileType	4	(X/Y/Z)	 s09c0103.trc
DataRate	CameraRate	NumFrames	NumMarkers	Units	OrigDataRate	OrigDataStartFrame	OrigNumFrames
200	200	4	50	mm	200	1	2000
Frame#	Time	racr			lacr			c7			jug			rlel			rdr			llel			ldr			s2			lic			ric			lasi			rasi			rpsi			lpsi			rgt			lgt			rth1			rth2			rth3			rth4			rlfc			rmfc			rsh1			rsh2			rsh3			rsh4			rlmal			rmmal			rcal			rtoe			rmt5			lth1			lth2			lth4			lth3			llfc			lmfc			llmal			lmmal			lcal			lmt5			lsh1			lsh2			lsh3			lsh4			ltoe			SBIKE			LBIKE			RBIKE			
		X1	Y1	Z1	X2	Y2	Z2	X3	Y3	Z3	X4	Y4	Z4	X5	Y5	Z5	X6	Y6	Z6	X7	Y7	Z7	X8	Y8	Z8	X9	Y9	Z9	X10	Y10	Z10	X11	Y11	Z11	X12	Y12	Z12	X13	Y13	Z13	X14	Y14	Z14	X15	Y15	Z15	X16	Y16	Z16	X17	Y17	Z17	X18	Y18	Z18	X19	Y19	Z19	X20	Y20	Z20	X21	Y21	Z21	X22	Y22	Z22	X23	Y23	Z23	X24	Y24	Z24	X25	Y25	Z25	X26	Y26	Z26	X27	Y27	Z27	X28	Y28	Z28	X29	Y29	Z29	X30	Y30	Z30	X31	Y31	Z31	X32	Y32	Z32	X33	Y33	Z33	X34	Y34	Z34	X35	Y35	Z35	X36	Y36	Z36	X37	Y37	Z37	X38	Y38	Z38	X39	Y39	Z39	X40	Y40	Z40	X41	Y41	Z41	X42	Y42	Z42	X43	Y43	Z43	X44	Y44	Z44	X45	Y45	Z45	X46	Y46	Z46	X47	Y47	Z47	X48	Y48	Z48	X49	Y49	Z49	X50	Y50	Z50	
1	0.0050	469.070335	1293.161206	-107.764263	470.792917	1273.203633	-402.638454	430.447767	1305.047626	-251.264143	436.268337	1166.370758	-246.871253	518.265788	1056.264712	-11.362133	698.652033	876.681441	-53.573156	481.276700	1012.515032	-509.129969	688.893703	877.052062	-450.179295	-49.652998	1135.359384	-238.408640	88.538651	1118.610918	-383.779845	99.882466	1118.185415	-91.542974	126.463374	1058.851287	-364.129542	134.066726	1057.287301	-110.253633	-14.875602	1162.358145	-178.929164	-19.363566	1169.911027	-287.027465	54.496308	981.148998	-41.749909	44.321640	1006.846551	-433.597081	139.927454	868.405971	-41.337280	209.625274	816.389150	-45.396980	240.814163	732.482773	-53.610382	236.020290	834.747986	-63.440973	284.305770	644.765673	-82.960663	271.943805	630.095142	-179.849875	211.539838	569.166887	-55.916255	182.354201	485.416811	-71.909963	115.796784	428.351761	-74.434716	204.789349	475.063448	-102.933811	56.681710	346.317736	-79.131331	61.201524	360.503436	-156.037834	-31.139469	331.311434	-120.007600	223.124084	255.181687	-126.018888	140.680713	260.571810	-60.010783	165.550544	942.320623	-431.435071	249.972031	932.765758	-425.426411	264.302879	965.455056	-412.877784	322.410917	878.541315	-422.332520	401.599484	821.505331	-404.879447	422.588658	812.466031	-308.250263	339.111643	463.368087	-405.891493	355.220874	475.278854	-334.393309	270.457651	422.752874	-367.046659	439.704255	389.504483	-433.266293	383.689296	722.846513	-424.854785	392.239155	636.914601	-415.603846	355.108929	556.373593	-412.660522	418.166705	635.966062	-385.674145	532.373443	412.191211	-366.765855	-65.674099	851.576546	-238.954794	20.976038	84.618134	-442.166427	21.184525	83.892574	-43.719900	
2	0.0100	469.106663	1293.085472	-107.799474	470.828220	1273.124553	-402.642127	430.480335	1304.996899	-251.256676	436.303901	1166.255872	-246.838526	518.231322	1056.210042	-11.279775	698.639707	876.689256	-53.559519	481.230103	1012.458656	-509.178458	688.876755	877.031413	-450.175369	-49.630267	1135.353228	-238.419729	88.555685	1118.615190	-383.770204	99.902428	1118.177235	-91.564374	126.485396	1058.860884	-364.113327	134.059125	1057.286961	-110.255933	-14.848416	1162.329148	-178.936012	-19.338189	1169.903720	-287.061153	54.499551	981.141027	-41.755108	44.327887	1006.822339	-433.578369	139.969178	868.382092	-41.333944	209.627865	816.392202	-45.395501	240.806611	732.471948	-53.623836	236.039672	834.722435	-63.459572	284.307903	644.743617	-82.962956	271.937578	630.059132	-179.843192	211.511849	569.134608	-55.919613	182.347290	485.402234	-71.916311	115.763338	428.355077	-74.439488	204.788680	475.058214	-102.932847	56.666784	346.314345	-79.138827	61.167337	360.495606	-156.042024	-31.180529	331.315864	-120.010923	223.102331	255.198003	-126.021597	140.670030	260.578159	-60.014463	165.551992	942.305988	-431.439300	250.001064	932.750380	-425.421119	264.330194	965.443467	-412.860838	322.426221	878.541330	-422.343328	401.614222	821.514436	-404.912885	422.597869	812.442712	-308.301946	339.121064	463.376411	-405.885827	355.263383	475.281138	-334.367431	270.457315	422.768412	-367.055275	439.700162	389.466801	-433.257797	383.718281	722.844201	-424.858770	392.265598	636.907845	-415.621885	355.140149	556.371936	-412.653074	418.198037	635.930011	-385.672227	532.401821	412.162725	-366.764848	-65.672136	851.570916	-238.957065	20.980694	84.627036	-442.174845	21.199858	83.869414	-43.720489	
3	0.0150	469.157380	1293.021234	-107.810248	470.858231	1273.070264	-402.650730	430.490703	1304.948128	-251.236180	436.329211	1166.176433	-246.824947	518.221230	1056.158950	-11.195885	698.641942	876.694123	-53.534720	481.187859	1012.371821	-509.225060	688.869581	877.032230	-450.183572	-49.603306	1135.372653	-238.410230	88.578513	1118.609393	-383.748990	99.917344	1118.176157	-91.558367	126.484134	1058.856869	-364.095880	134.074610	1057.285722	-110.226952	-14.848433	1162.351933	-178.936848	-19.309817	1169.887563	-287.034102	54.517129	981.133615	-41.732223	44.367707	1006.805700	-433.561543	139.983774	868.382944	-41.325575	209.624904	816.371403	-45.384603	240.823534	732.480348	-53.601649	236.035239	834.697861	-63.452329	284.323949	644.723079	-82.959999	271.951132	630.052307	-179.817835	211.519460	569.120634	-55.915118	182.332544	485.401492	-71.898283	115.759413	428.341271	-74.437553	204.770853	475.041403	-102.940509	56.636403	346.313880	-79.127353	61.113505	360.530136	-156.020530	-31.200398	331.303794	-120.009511	223.104708	255.215915	-126.019655	140.673210	260.595006	-60.015917	165.576209	942.312625	-431.419096	250.012611	932.755521	-425.407870	264.342079	965.443755	-412.866414	322.448319	878.539140	-422.331198	401.629886	821.509070	-404.909351	422.607895	812.445518	-308.290159	339.145821	463.370120	-405.868774	355.275710	475.280773	-334.377056	270.472115	422.790577	-367.026418	439.733687	389.406339	-433.222880	383.741158	722.848759	-424.858816	392.295027	636.913736	-415.628371	355.165259	556.354696	-412.667545	418.219926	635.927960	-385.668450	532.418178	412.138382	-366.766017	-65.671059	851.574215	-238.948167	20.980448	84.631753	-442.159437	21.211396	83.867004	-43.722805	
4	0.0200	469.070262	1293.803994	-107.582710	470.898302	1272.997767	-402.668251	430.531925	1304.900136	-251.210965	436.401238	1166.166994	-246.790282	518.474002	1055.993538	-10.863727	698.623680	876.639960	-53.566791	481.174498	1012.278263	-509.279328	688.855542	877.006929	-450.173180	-51.681566	1137.475978	-232.418769	88.581412	1118.671885	-383.697481	99.650732	1117.971742	-91.491019	126.494715	1058.853441	-364.112406	133.826279	1057.159037	-110.179523	-14.824196	1162.360533	-178.927355	-18.011139	1168.993418	-288.074466	54.559888	981.128139	-41.728666	44.373722	1006.818613	-433.574649	139.712086	867.926784	-41.357501	210.403995	816.088100	-44.948600	240.849358	732.463398	-53.591837	236.078749	834.698377	-63.416412	284.338108	644.719981	-82.937884	271.945654	630.051263	-179.812286	211.525885	569.119383	-55.886524	182.489028	485.247791	-71.617748	115.963989	428.178608	-74.489910	204.839089	474.848415	-102.984368	56.527276	346.137027	-78.970171	61.110872	360.510546	-156.023523	-31.202495	331.289313	-119.995036	223.123137	255.262846	-125.988730	140.665520	260.613691	-60.006367	165.605045	942.053488	-431.467047	250.034989	932.764439	-425.419815	264.138722	965.908192	-412.832552	322.472260	878.539416	-422.332012	401.641171	821.401605	-404.960727	422.703621	812.472501	-308.259378	338.925657	463.784171	-405.967270	354.770873	474.305189	-333.955920	270.401096	422.829295	-367.064446	439.744928	389.382707	-433.228740	383.772337	722.845059	-424.863633	392.479561	636.681969	-415.575161	355.289387	556.278478	-412.637477	418.291208	635.858119	-385.634058	532.424010	412.112318	-366.778009	-65.759607	851.675876	-239.290356	20.982352	84.639523	-442.171582	21.220133	83.864803	-43.708881	
